# Blender v2.79 (sub 0) OBJ File: ''
# www.blender.org
mtllib config.mtl
o Object_3_O_#
v 6.000000 -3.750000 -0.750000
v 5.750000 -4.000000 -0.750000
v 5.750000 -3.750000 -1.000000
v 6.000000 -3.750000 0.750000
v 5.750000 -3.750000 1.000000
v 5.750000 -4.000000 0.750000
v -5.750001 -3.750000 1.000000
v -6.000000 -3.750000 0.750000
v -5.750000 -4.000000 0.750000
v -5.749998 -3.750000 -1.000000
v -5.749998 -4.000000 -0.750000
v -5.999998 -3.750000 -0.750000
v 5.750003 3.750000 -1.000000
v 5.750002 4.000000 -0.750000
v 6.000002 3.750000 -0.750000
v 5.749996 3.750000 1.000001
v 5.999997 3.750000 0.750001
v 5.749997 4.000000 0.750001
v -6.000001 3.750000 0.750000
v -5.750002 3.750000 1.000000
v -5.750001 4.000000 0.750000
v -6.000000 3.750000 -0.750000
v -5.750000 4.000000 -0.750000
v -5.749999 3.750000 -1.000000
vn 0.0000 0.0000 -1.0000
vn 0.0000 -1.0000 0.0000
vn -1.0000 -0.0000 -0.0000
vn 0.0000 1.0000 0.0000
vn -0.0000 -0.0000 1.0000
vn 0.5774 -0.5774 -0.5774
vn 0.5774 -0.5774 0.5774
vn -0.5774 -0.5774 0.5773
vn -0.5773 -0.5773 -0.5774
vn 0.5774 0.5774 -0.5773
vn 0.5773 0.5773 0.5774
vn -0.5774 0.5774 0.5773
vn -0.5773 0.5773 -0.5774
vn 0.7071 -0.7071 0.0000
vn 0.0000 -0.7071 -0.7071
vn 0.7071 -0.0000 -0.7071
vn -0.0000 -0.7071 0.7071
vn 0.7071 0.0000 0.7071
vn -0.7071 -0.7071 -0.0000
vn -0.7071 -0.0000 0.7071
vn -0.7071 -0.0000 -0.7071
vn 0.7071 0.7071 0.0000
vn 0.0000 0.7071 -0.7071
vn -0.0000 0.7071 0.7071
vn -0.7071 0.7071 -0.0000
vn 1.0000 0.0000 0.0000
usemtl Material.002
s off
f 13//1 3//1 10//1 24//1
f 2//2 6//2 9//2 11//2
f 8//3 19//3 22//3 12//3
f 14//4 23//4 21//4 18//4
f 5//5 16//5 20//5 7//5
f 1//6 2//6 3//6
f 4//7 5//7 6//7
f 7//8 8//8 9//8
f 10//9 11//9 12//9
f 13//10 14//10 15//10
f 16//11 17//11 18//11
f 19//12 20//12 21//12
f 22//13 23//13 24//13
f 1//14 4//14 6//14 2//14
f 2//15 11//15 10//15 3//15
f 3//16 13//16 15//16 1//16
f 5//17 7//17 9//17 6//17
f 4//18 17//18 16//18 5//18
f 8//19 12//19 11//19 9//19
f 7//20 20//20 19//20 8//20
f 12//21 22//21 24//21 10//21
f 14//22 18//22 17//22 15//22
f 13//23 24//23 23//23 14//23
f 18//24 21//24 20//24 16//24
f 21//25 23//25 22//25 19//25
f 1//26 15//26 17//26 4//26
o Object_2_O_2
v 6.000000 -3.750000 -0.750000
v 5.750000 -4.000000 -0.750000
v 5.750000 -3.750000 -1.000000
v 6.000000 -3.750000 0.750000
v 5.750000 -3.750000 1.000000
v 5.750000 -4.000000 0.750000
v -5.750001 -3.750000 1.000000
v -6.000000 -3.750000 0.750000
v -5.750000 -4.000000 0.750000
v -5.749998 -3.750000 -1.000000
v -5.749998 -4.000000 -0.750000
v -5.999998 -3.750000 -0.750000
v 5.750003 3.750000 -1.000000
v 5.750002 4.000000 -0.750000
v 6.000002 3.750000 -0.750000
v 5.749996 3.750000 1.000001
v 5.999997 3.750000 0.750001
v 5.749997 4.000000 0.750001
v -6.000001 3.750000 0.750000
v -5.750002 3.750000 1.000000
v -5.750001 4.000000 0.750000
v -6.000000 3.750000 -0.750000
v -5.750000 4.000000 -0.750000
v -5.749999 3.750000 -1.000000
vn 0.0000 0.0000 -1.0000
vn 0.0000 -1.0000 0.0000
vn -1.0000 -0.0000 -0.0000
vn 0.0000 1.0000 0.0000
vn -0.0000 -0.0000 1.0000
vn 0.5774 -0.5774 -0.5774
vn 0.5774 -0.5774 0.5774
vn -0.5774 -0.5774 0.5773
vn -0.5773 -0.5773 -0.5774
vn 0.5774 0.5774 -0.5773
vn 0.5773 0.5773 0.5774
vn -0.5774 0.5774 0.5773
vn -0.5773 0.5773 -0.5774
vn 0.7071 -0.7071 0.0000
vn 0.0000 -0.7071 -0.7071
vn 0.7071 -0.0000 -0.7071
vn -0.0000 -0.7071 0.7071
vn 0.7071 0.0000 0.7071
vn -0.7071 -0.7071 -0.0000
vn -0.7071 -0.0000 0.7071
vn -0.7071 -0.0000 -0.7071
vn 0.7071 0.7071 0.0000
vn 0.0000 0.7071 -0.7071
vn -0.0000 0.7071 0.7071
vn -0.7071 0.7071 -0.0000
vn 1.0000 0.0000 0.0000
usemtl Material.001
s off
f 37//27 27//27 34//27 48//27
f 26//28 30//28 33//28 35//28
f 32//29 43//29 46//29 36//29
f 38//30 47//30 45//30 42//30
f 29//31 40//31 44//31 31//31
f 25//32 26//32 27//32
f 28//33 29//33 30//33
f 31//34 32//34 33//34
f 34//35 35//35 36//35
f 37//36 38//36 39//36
f 40//37 41//37 42//37
f 43//38 44//38 45//38
f 46//39 47//39 48//39
f 25//40 28//40 30//40 26//40
f 26//41 35//41 34//41 27//41
f 27//42 37//42 39//42 25//42
f 29//43 31//43 33//43 30//43
f 28//44 41//44 40//44 29//44
f 32//45 36//45 35//45 33//45
f 31//46 44//46 43//46 32//46
f 36//47 46//47 48//47 34//47
f 38//48 42//48 41//48 39//48
f 37//49 48//49 47//49 38//49
f 42//50 45//50 44//50 40//50
f 45//51 47//51 46//51 43//51
f 25//52 39//52 41//52 28//52
o Object_1_O_1
v 6.000000 -3.750000 -0.750000
v 5.750000 -4.000000 -0.750000
v 5.750000 -3.750000 -1.000000
v 6.000000 -3.750000 0.750000
v 5.750000 -3.750000 1.000000
v 5.750000 -4.000000 0.750000
v -5.750001 -3.750000 1.000000
v -6.000000 -3.750000 0.750000
v -5.750000 -4.000000 0.750000
v -5.749998 -3.750000 -1.000000
v -5.749998 -4.000000 -0.750000
v -5.999998 -3.750000 -0.750000
v 5.750003 3.750000 -1.000000
v 5.750002 4.000000 -0.750000
v 6.000002 3.750000 -0.750000
v 5.749996 3.750000 1.000001
v 5.999997 3.750000 0.750001
v 5.749997 4.000000 0.750001
v -6.000001 3.750000 0.750000
v -5.750002 3.750000 1.000000
v -5.750001 4.000000 0.750000
v -6.000000 3.750000 -0.750000
v -5.750000 4.000000 -0.750000
v -5.749999 3.750000 -1.000000
vn 0.0000 0.0000 -1.0000
vn 0.0000 -1.0000 0.0000
vn -1.0000 -0.0000 -0.0000
vn 0.0000 1.0000 0.0000
vn -0.0000 -0.0000 1.0000
vn 0.5774 -0.5774 -0.5774
vn 0.5774 -0.5774 0.5774
vn -0.5774 -0.5774 0.5773
vn -0.5773 -0.5773 -0.5774
vn 0.5774 0.5774 -0.5773
vn 0.5773 0.5773 0.5774
vn -0.5774 0.5774 0.5773
vn -0.5773 0.5773 -0.5774
vn 0.7071 -0.7071 0.0000
vn 0.0000 -0.7071 -0.7071
vn 0.7071 -0.0000 -0.7071
vn -0.0000 -0.7071 0.7071
vn 0.7071 0.0000 0.7071
vn -0.7071 -0.7071 -0.0000
vn -0.7071 -0.0000 0.7071
vn -0.7071 -0.0000 -0.7071
vn 0.7071 0.7071 0.0000
vn 0.0000 0.7071 -0.7071
vn -0.0000 0.7071 0.7071
vn -0.7071 0.7071 -0.0000
vn 1.0000 0.0000 0.0000
usemtl Material
s off
f 61//53 51//53 58//53 72//53
f 50//54 54//54 57//54 59//54
f 56//55 67//55 70//55 60//55
f 62//56 71//56 69//56 66//56
f 53//57 64//57 68//57 55//57
f 49//58 50//58 51//58
f 52//59 53//59 54//59
f 55//60 56//60 57//60
f 58//61 59//61 60//61
f 61//62 62//62 63//62
f 64//63 65//63 66//63
f 67//64 68//64 69//64
f 70//65 71//65 72//65
f 49//66 52//66 54//66 50//66
f 50//67 59//67 58//67 51//67
f 51//68 61//68 63//68 49//68
f 53//69 55//69 57//69 54//69
f 52//70 65//70 64//70 53//70
f 56//71 60//71 59//71 57//71
f 55//72 68//72 67//72 56//72
f 60//73 70//73 72//73 58//73
f 62//74 66//74 65//74 63//74
f 61//75 72//75 71//75 62//75
f 66//76 69//76 68//76 64//76
f 69//77 71//77 70//77 67//77
f 49//78 63//78 65//78 52//78
